<?xml version="1.0" encoding="UTF-8" standalone="no"?>
<!DOCTYPE svg PUBLIC "-//W3C//DTD SVG 1.1//EN" "http://www.w3.org/Graphics/SVG/1.1/DTD/svg11.dtd">
<svg width="100%" height="100%" viewBox="0 0 240 30" version="1.1" xmlns="http://www.w3.org/2000/svg" xmlns:xlink="http://www.w3.org/1999/xlink" xml:space="preserve" xmlns:serif="http://www.serif.com/" style="fill-rule:evenodd;clip-rule:evenodd;stroke-linejoin:round;stroke-miterlimit:2;">
    <g>
        <g>
            <path d="M2.2,27.9L2.2,2.1L27.9,2.1L27.9,27.8L2.2,27.8L2.2,27.9ZM30,0.1L0.1,0.1L0.1,30L30,30L30,0.1Z" style="fill:rgb(26,26,26);fill-rule:nonzero;"/>
            <path d="M22.1,14L22.1,7C22.1,6.5 22.5,6 23,6C23.5,6 24,6.5 24,7L24,14L22.1,14ZM23,4C21.4,4 20,5.3 20,7L20,26L22.1,26L22.1,16L24,16L24,26L26,26L26,7C26,5.4 24.7,4 23,4Z" style="fill:rgb(26,26,26);fill-rule:nonzero;"/>
            <path d="M15.1,25.9C16.7,25.9 18.1,24.6 18.1,22.9L18.1,18.9M18,19C18,17.4 16.7,16 15,16L12,16L12,26L15,26M14.1,23.9L14.1,17.9L15.1,17.9C15.6,17.9 16.1,18.3 16.1,18.9L16.1,22.9C16.1,23.4 15.7,23.9 15.1,23.9" style="fill:rgb(26,26,26);fill-rule:nonzero;"/>
            <path d="M14,9L14,7C14,6.5 14.5,6 15,6C15.5,6 16,6.4 16,7L16,9L14,9ZM15,4C13.4,4 12.1,5.3 12.1,7L12.1,14L14,14L14,11.1L16.1,11.1L16.1,14L18,14L18,7C17.9,5.4 16.7,4 15,4Z" style="fill:rgb(26,26,26);fill-rule:nonzero;"/>
            <path d="M10.1,7C10.1,5.4 8.8,4 7.1,4L4.1,4L4.1,25.9L7.1,25.9C8.7,25.9 10.1,24.6 10.1,22.9L10.1,7M6.1,23.9L6.1,6L7.1,6C7.6,6 8.1,6.4 8.1,7L8.1,23C8.1,23.5 7.7,24 7.1,24" style="fill:rgb(26,26,26);fill-rule:nonzero;"/>
        </g>
        <g>
            <path d="M55.5,24.1C54.5,25.1 53.3,25.8 51.6,25.8C48,25.8 45.3,23.3 45.3,18.5C45.3,14.2 48,11.3 51.6,11.3C53.2,11.3 54.4,11.8 55.5,12.8L55.5,4L59.9,4L59.9,25.5L55.5,25.5L55.5,24.1ZM55.7,18.5C55.7,16.1 54.4,14.9 52.6,14.9C50.7,14.9 49.6,16.4 49.6,18.5C49.6,20.6 50.7,22.2 52.7,22.2C54.6,22.2 55.7,20.6 55.7,18.5Z" style="fill-rule:nonzero;"/>
            <path d="M72.2,24.1C71.2,25.1 70,25.8 68.3,25.8C64.7,25.8 62,23.3 62,18.5C62,14.2 64.7,11.3 68.3,11.3C69.9,11.3 71.1,11.8 72.2,12.8L72.2,11.6L76.6,11.6L76.6,25.5L72.2,25.5L72.2,24.1ZM72.4,18.5C72.4,16.1 71.1,14.9 69.3,14.9C67.4,14.9 66.3,16.4 66.3,18.5C66.3,20.6 67.4,22.2 69.4,22.2C71.3,22.2 72.4,20.6 72.4,18.5Z" style="fill-rule:nonzero;"/>
            <path d="M88.9,24.1C87.9,25.1 86.7,25.8 85,25.8C81.4,25.8 78.7,23.3 78.7,18.5C78.7,14.2 81.4,11.3 85,11.3C86.6,11.3 87.8,11.8 88.9,12.8L88.9,4L93.3,4L93.3,25.5L88.9,25.5L88.9,24.1ZM89.1,18.5C89.1,16.1 87.8,14.9 86,14.9C84.1,14.9 83,16.4 83,18.5C83,20.6 84.1,22.2 86.1,22.2C88,22.2 89.1,20.6 89.1,18.5Z" style="fill-rule:nonzero;"/>
            <path d="M105.6,24.1C104.6,25.1 103.4,25.8 101.7,25.8C98.1,25.8 95.4,23.3 95.4,18.5C95.4,14.2 98.1,11.3 101.7,11.3C103.3,11.3 104.5,11.8 105.6,12.8L105.6,11.6L110,11.6L110,25.5L105.6,25.5L105.6,24.1ZM105.8,18.5C105.8,16.1 104.5,14.9 102.7,14.9C100.8,14.9 99.7,16.4 99.7,18.5C99.7,20.6 100.8,22.2 102.8,22.2C104.7,22.2 105.8,20.6 105.8,18.5Z" style="fill-rule:nonzero;"/>
            <path d="M113,11.5L117.4,11.5L117.4,13.2C118.3,12.1 119.6,11.1 121.7,11.1C123.8,11.1 125.4,12.1 126.1,13.7C127.1,12.4 128.4,11.1 130.8,11.1C133.7,11.1 135.6,12.9 135.6,15.7L135.6,25.4L131.2,25.4L131.2,17.2C131.2,15.7 130.3,14.8 128.9,14.8C127.5,14.8 126.4,15.9 126.4,18L126.4,25.5L122,25.5L122,17.3C122,15.8 121.1,14.9 119.7,14.9C118.3,14.9 117.3,16 117.2,17.9L117.2,25.5L113,25.5L113,11.5Z" style="fill-rule:nonzero;"/>
            <path d="M148,24.1C147,25.1 145.8,25.8 144.1,25.8C140.5,25.8 137.8,23.3 137.8,18.5C137.8,14.2 140.5,11.3 144.1,11.3C145.7,11.3 146.9,11.8 148,12.8L148,11.6L152.4,11.6L152.4,25.5L148,25.5L148,24.1ZM148.2,18.5C148.2,16.1 146.9,14.9 145.1,14.9C143.2,14.9 142.1,16.4 142.1,18.5C142.1,20.6 143.2,22.2 145.2,22.2C147.1,22.2 148.2,20.6 148.2,18.5Z" style="fill-rule:nonzero;"/>
            <path d="M167.5,23.8C166.4,24.8 164.8,26 162,26C157.5,26 154.6,22.9 154.6,18.5C154.6,14.7 157.3,11.2 161.9,11.2C164.3,11.2 165.8,12.1 166.9,12.8L165,15.9C164.4,15.6 163.6,15 162.1,15C160.3,15 158.8,16.4 158.8,18.5C158.8,20.7 160.3,22.1 162.3,22.1C163.8,22.1 164.7,21.4 165.4,20.9L167.5,23.8Z" style="fill-rule:nonzero;"/>
            <path d="M168.9,4L173.3,4L173.3,13.2C174.3,12.1 175.6,11.1 177.8,11.1C180.8,11.1 182.7,12.9 182.7,15.7L182.7,25.4L178.3,25.4L178.3,17.2C178.3,15.7 177.4,14.8 176,14.8C174.5,14.8 173.4,15.9 173.3,17.8L173.3,25.4L168.9,25.4L168.9,4Z" style="fill-rule:nonzero;"/>
            <path d="M185.3,6.8C185.3,5.3 186.5,4.2 187.9,4.2C189.3,4.2 190.5,5.3 190.5,6.8C190.5,8.3 189.3,9.4 187.9,9.4C186.4,9.4 185.3,8.2 185.3,6.8ZM185.7,11.5L190.1,11.5L190.1,25.4L185.7,25.4L185.7,11.5Z" style="fill-rule:nonzero;"/>
            <path d="M193.1,11.5L197.5,11.5L197.5,13.1C198.4,12.1 199.7,11.1 201.9,11.1C205,11.1 206.9,13.1 206.9,15.9L206.9,25.4L202.5,25.4L202.5,17.2C202.5,15.7 201.6,14.8 200.2,14.8C198.7,14.8 197.6,15.9 197.5,17.8L197.5,25.4L193.1,25.4L193.1,11.5Z" style="fill-rule:nonzero;"/>
            <path d="M213,19.7C213.5,21.3 214.9,22.4 216.8,22.4C218.7,22.4 219.8,21.8 220.8,21.2L222.3,24.1C221.1,24.9 219.2,26 216.5,26C211.9,26 209,22.8 209,18.5C209,14.5 211.6,11.2 216,11.2C220.6,11.2 222.6,14.9 222.6,18.5C222.6,18.8 222.6,19.5 222.5,19.8L213,19.8L213,19.7ZM213,16.9L218.7,16.9C218.5,15.4 217.7,14.2 215.9,14.2C214.4,14.2 213.4,15.3 213,16.9Z" style="fill-rule:nonzero;"/>
            <path d="M225.1,21.1C226.2,21.8 227.8,22.6 229.5,22.6C230.5,22.6 231,22.3 231,21.6C231,20.9 230.4,20.7 229.4,20.3L227.9,19.7C225.6,18.9 224.2,17.8 224.2,15.3C224.2,12.8 226.3,11 229.4,11C231.7,11 233.2,11.8 234.4,12.5L233,15.3C232.2,14.9 230.8,14.2 229.6,14.2C228.7,14.2 228.2,14.6 228.2,15.2C228.2,15.9 228.6,16.1 229.6,16.5L231,17C233.3,17.8 235.1,18.6 235.1,21.1C235.1,23.7 233.2,25.8 229.6,25.8C227.1,25.8 225,24.8 223.5,24L225.1,21.1Z" style="fill-rule:nonzero;"/>
        </g>
    </g>
</svg>
