<?xml version="1.0" encoding="utf-8"?>
<!-- Generator: Adobe Illustrator 24.2.0, SVG Export Plug-In . SVG Version: 6.00 Build 0)  -->
<svg version="1.1" id="Layer_1" xmlns="http://www.w3.org/2000/svg" xmlns:xlink="http://www.w3.org/1999/xlink" x="0px" y="0px"
	 viewBox="0 0 240 30" style="enable-background:new 0 0 240 30;" xml:space="preserve">
<style type="text/css">
	.st0{fill:#1A1A1A;}
</style>
<g>
	<g>
		<path class="st0" d="M2.2,27.9V2.1h25.7v25.7H2.2z M30,0.1H0.1v29.9H30V0.1z"/>
		<path class="st0" d="M22.1,14V7c0-0.5,0.4-1,0.9-1S24,6.5,24,7V14H22.1z M23,4c-1.6,0-3,1.3-3,3v19h2.1V16H24v10H26V7
			C26,5.4,24.7,4,23,4z"/>
		<path class="st0" d="M15.1,25.9c1.6,0,3-1.3,3-3v-4 M18,19c0-1.6-1.3-3-3-3h-3v10h3 M14.1,23.9v-6h1c0.5,0,1,0.4,1,1v4
			c0,0.5-0.4,1-1,1"/>
		<path class="st0" d="M14,9V7c0-0.5,0.5-1,1-1c0.5,0,1,0.4,1,1v2H14z M15,4c-1.6,0-2.9,1.3-2.9,3V14H14v-2.9h2.1V14h1.9V7
			C17.9,5.4,16.7,4,15,4z"/>
		<path class="st0" d="M10.1,7c0-1.6-1.3-3-3-3h-3v21.9h3c1.6,0,3-1.3,3-3V7 M6.1,23.9V6h1c0.5,0,1,0.4,1,1V23c0,0.5-0.4,1-1,1"/>
	</g>
	<g>
		<path d="M55.5,24.1c-1,1-2.2,1.7-3.9,1.7c-3.6,0-6.3-2.5-6.3-7.3c0-4.3,2.7-7.2,6.3-7.2c1.6,0,2.8,0.5,3.9,1.5V4h4.4v21.5h-4.4
			V24.1z M55.7,18.5c0-2.4-1.3-3.6-3.1-3.6c-1.9,0-3,1.5-3,3.6c0,2.1,1.1,3.7,3.1,3.7C54.6,22.2,55.7,20.6,55.7,18.5z"/>
		<path d="M72.2,24.1c-1,1-2.2,1.7-3.9,1.7c-3.6,0-6.3-2.5-6.3-7.3c0-4.3,2.7-7.2,6.3-7.2c1.6,0,2.8,0.5,3.9,1.5v-1.2h4.4v13.9h-4.4
			V24.1z M72.4,18.5c0-2.4-1.3-3.6-3.1-3.6c-1.9,0-3,1.5-3,3.6c0,2.1,1.1,3.7,3.1,3.7C71.3,22.2,72.4,20.6,72.4,18.5z"/>
		<path d="M88.9,24.1c-1,1-2.2,1.7-3.9,1.7c-3.6,0-6.3-2.5-6.3-7.3c0-4.3,2.7-7.2,6.3-7.2c1.6,0,2.8,0.5,3.9,1.5V4h4.4v21.5h-4.4
			V24.1z M89.1,18.5c0-2.4-1.3-3.6-3.1-3.6c-1.9,0-3,1.5-3,3.6c0,2.1,1.1,3.7,3.1,3.7C88,22.2,89.1,20.6,89.1,18.5z"/>
		<path d="M105.6,24.1c-1,1-2.2,1.7-3.9,1.7c-3.6,0-6.3-2.5-6.3-7.3c0-4.3,2.7-7.2,6.3-7.2c1.6,0,2.8,0.5,3.9,1.5v-1.2h4.4v13.9
			h-4.4V24.1z M105.8,18.5c0-2.4-1.3-3.6-3.1-3.6c-1.9,0-3,1.5-3,3.6c0,2.1,1.1,3.7,3.1,3.7C104.7,22.2,105.8,20.6,105.8,18.5z"/>
		<path d="M113,11.5h4.4v1.7c0.9-1.1,2.2-2.1,4.3-2.1c2.1,0,3.7,1,4.4,2.6c1-1.3,2.3-2.6,4.7-2.6c2.9,0,4.8,1.8,4.8,4.6v9.7h-4.4
			v-8.2c0-1.5-0.9-2.4-2.3-2.4c-1.4,0-2.5,1.1-2.5,3.2v7.5h-4.4v-8.2c0-1.5-0.9-2.4-2.3-2.4c-1.4,0-2.4,1.1-2.5,3v7.6H113V11.5z"/>
		<path d="M148,24.1c-1,1-2.2,1.7-3.9,1.7c-3.6,0-6.3-2.5-6.3-7.3c0-4.3,2.7-7.2,6.3-7.2c1.6,0,2.8,0.5,3.9,1.5v-1.2h4.4v13.9H148
			V24.1z M148.2,18.5c0-2.4-1.3-3.6-3.1-3.6c-1.9,0-3,1.5-3,3.6c0,2.1,1.1,3.7,3.1,3.7C147.1,22.2,148.2,20.6,148.2,18.5z"/>
		<path d="M167.5,23.8c-1.1,1-2.7,2.2-5.5,2.2c-4.5,0-7.4-3.1-7.4-7.5c0-3.8,2.7-7.3,7.3-7.3c2.4,0,3.9,0.9,5,1.6l-1.9,3.1
			c-0.6-0.3-1.4-0.9-2.9-0.9c-1.8,0-3.3,1.4-3.3,3.5c0,2.2,1.5,3.6,3.5,3.6c1.5,0,2.4-0.7,3.1-1.2L167.5,23.8z"/>
		<path d="M168.9,4h4.4v9.2c1-1.1,2.3-2.1,4.5-2.1c3,0,4.9,1.8,4.9,4.6v9.7h-4.4v-8.2c0-1.5-0.9-2.4-2.3-2.4c-1.5,0-2.6,1.1-2.7,3
			v7.6h-4.4V4z"/>
		<path d="M185.3,6.8c0-1.5,1.2-2.6,2.6-2.6c1.4,0,2.6,1.1,2.6,2.6c0,1.5-1.2,2.6-2.6,2.6C186.4,9.4,185.3,8.2,185.3,6.8z
			 M185.7,11.5h4.4v13.9h-4.4V11.5z"/>
		<path d="M193.1,11.5h4.4v1.6c0.9-1,2.2-2,4.4-2c3.1,0,5,2,5,4.8v9.5h-4.4v-8.2c0-1.5-0.9-2.4-2.3-2.4c-1.5,0-2.6,1.1-2.7,3v7.6
			h-4.4V11.5z"/>
		<path d="M213,19.7c0.5,1.6,1.9,2.7,3.8,2.7c1.9,0,3-0.6,4-1.2l1.5,2.9c-1.2,0.8-3.1,1.9-5.8,1.9c-4.6,0-7.5-3.2-7.5-7.5
			c0-4,2.6-7.3,7-7.3c4.6,0,6.6,3.7,6.6,7.3c0,0.3,0,1-0.1,1.3H213z M213,16.9h5.7c-0.2-1.5-1-2.7-2.8-2.7
			C214.4,14.2,213.4,15.3,213,16.9z"/>
		<path d="M225.1,21.1c1.1,0.7,2.7,1.5,4.4,1.5c1,0,1.5-0.3,1.5-1c0-0.7-0.6-0.9-1.6-1.3l-1.5-0.6c-2.3-0.8-3.7-1.9-3.7-4.4
			c0-2.5,2.1-4.3,5.2-4.3c2.3,0,3.8,0.8,5,1.5l-1.4,2.8c-0.8-0.4-2.2-1.1-3.4-1.1c-0.9,0-1.4,0.4-1.4,1c0,0.7,0.4,0.9,1.4,1.3
			l1.4,0.5c2.3,0.8,4.1,1.6,4.1,4.1c0,2.6-1.9,4.7-5.5,4.7c-2.5,0-4.6-1-6.1-1.8L225.1,21.1z"/>
	</g>
</g>
</svg>
