<?xml version="1.0" encoding="utf-8"?>
<!-- Generator: Adobe Illustrator 24.2.0, SVG Export Plug-In . SVG Version: 6.00 Build 0)  -->
<svg version="1.1" id="Layer_1" xmlns="http://www.w3.org/2000/svg" xmlns:xlink="http://www.w3.org/1999/xlink" x="0px" y="0px"
	 viewBox="0 0 24 24" style="enable-background:new 0 0 24 24;" xml:space="preserve">
<style type="text/css">
	.st0{fill-rule:evenodd;clip-rule:evenodd;}
	.st1{fill-rule:evenodd;clip-rule:evenodd;fill:#FFFFFF;filter:url(#Adobe_OpacityMaskFilter);}
	.st2{mask:url(#mask0_1_);}
</style>
<path class="st0" d="M13.6,20.7v-8h2.7l0.4-3.1h-3.1v-2c0-0.9,0.3-1.5,1.6-1.5l1.7,0V3.4c-0.3,0-1.3-0.1-2.4-0.1
	c-2.4,0-4.1,1.4-4.1,4.1v2.3H7.6v3.1h2.7v8H13.6z"/>
<defs>
	<filter id="Adobe_OpacityMaskFilter" filterUnits="userSpaceOnUse">
		<feColorMatrix  type="matrix" values="1 0 0 0 0  0 1 0 0 0  0 0 1 0 0  0 0 0 1 0"/>
	</filter>
</defs>
<mask maskUnits="userSpaceOnUse" id="mask0_1_">
	<path class="st1" d="M13.6,20.7v-8h2.7l0.4-3.1h-3.1v-2c0-0.9,0.3-1.5,1.6-1.5l1.7,0V3.4c-0.3,0-1.3-0.1-2.4-0.1
		c-2.4,0-4.1,1.4-4.1,4.1v2.3H7.6v3.1h2.7v8H13.6z"/>
</mask>
<g class="st2">
</g>
</svg>
