<?xml version="1.0" encoding="utf-8"?>
<!-- Generator: Adobe Illustrator 24.2.0, SVG Export Plug-In . SVG Version: 6.00 Build 0)  -->
<svg version="1.1" id="Layer_1" xmlns="http://www.w3.org/2000/svg" xmlns:xlink="http://www.w3.org/1999/xlink" x="0px" y="0px"
	 viewBox="0 0 24 24" style="enable-background:new 0 0 24 24;" xml:space="preserve">
<path d="M12,3c-5,0-9,4.1-9,9.2c0,4.1,2.6,7.5,6.2,8.8c0.4,0.1,0.6-0.2,0.6-0.4c0-0.2,0-0.8,0-1.6c-2.5,0.6-3-1.2-3-1.2
	c-0.4-1.1-1-1.4-1-1.4c-0.8-0.6,0.1-0.6,0.1-0.6c0.9,0.1,1.4,1,1.4,1c0.8,1.4,2.1,1,2.6,0.8c0.1-0.6,0.3-1,0.6-1.2
	c-2-0.2-4.1-1-4.1-4.6c0-1,0.3-1.8,0.9-2.5C7.1,9,6.8,8.1,7.3,6.8c0,0,0.8-0.2,2.5,0.9c0.7-0.2,1.5-0.3,2.2-0.3
	c0.8,0,1.5,0.1,2.2,0.3c1.7-1.2,2.5-0.9,2.5-0.9c0.5,1.3,0.2,2.2,0.1,2.4c0.6,0.6,0.9,1.5,0.9,2.5c0,3.5-2.1,4.3-4.1,4.6
	c0.3,0.3,0.6,0.8,0.6,1.7c0,1.2,0,2.2,0,2.5c0,0.2,0.2,0.5,0.6,0.4c3.6-1.2,6.2-4.7,6.2-8.7C21,7.1,17,3,12,3z"/>
</svg>
