<?xml version="1.0" encoding="utf-8"?>
<!-- Generator: Adobe Illustrator 24.2.0, SVG Export Plug-In . SVG Version: 6.00 Build 0)  -->
<svg version="1.1" id="Layer_1" xmlns="http://www.w3.org/2000/svg" xmlns:xlink="http://www.w3.org/1999/xlink" x="0px" y="0px"
	 viewBox="0 0 24 24" style="enable-background:new 0 0 24 24;" xml:space="preserve">
<style type="text/css">
	.st0{fill-rule:evenodd;clip-rule:evenodd;}
	.st1{fill-rule:evenodd;clip-rule:evenodd;fill:#FFFFFF;filter:url(#Adobe_OpacityMaskFilter);}
	.st2{mask:url(#mask0_1_);}
</style>
<path class="st0" d="M7.6,2.2h8.8c3,0,5.4,2.4,5.4,5.4v8.8c0,3-2.4,5.4-5.4,5.4H7.6c-3,0-5.4-2.4-5.4-5.4V7.6
	C2.2,4.6,4.6,2.2,7.6,2.2z M16.4,20.1c2,0,3.7-1.6,3.7-3.7h0V7.6c0-2-1.6-3.7-3.7-3.7H7.6c-2,0-3.7,1.6-3.7,3.7v8.8
	c0,2,1.6,3.7,3.7,3.7H16.4z M6.9,12c0-2.8,2.3-5.1,5.1-5.1c2.8,0,5.1,2.3,5.1,5.1c0,2.8-2.3,5.1-5.1,5.1C9.2,17.1,6.9,14.8,6.9,12z
	 M8.6,12c0,1.9,1.5,3.4,3.4,3.4s3.4-1.5,3.4-3.4c0-1.9-1.5-3.4-3.4-3.4S8.6,10.1,8.6,12z"/>
<defs>
	<filter id="Adobe_OpacityMaskFilter" filterUnits="userSpaceOnUse">
		<feColorMatrix  type="matrix" values="1 0 0 0 0  0 1 0 0 0  0 0 1 0 0  0 0 0 1 0"/>
	</filter>
</defs>
<mask maskUnits="userSpaceOnUse" id="mask0_1_">
	<path class="st1" d="M7.6,2.2h8.8c3,0,5.4,2.4,5.4,5.4v8.8c0,3-2.4,5.4-5.4,5.4H7.6c-3,0-5.4-2.4-5.4-5.4V7.6
		C2.2,4.6,4.6,2.2,7.6,2.2z M16.4,20.1c2,0,3.7-1.6,3.7-3.7h0V7.6c0-2-1.6-3.7-3.7-3.7H7.6c-2,0-3.7,1.6-3.7,3.7v8.8
		c0,2,1.6,3.7,3.7,3.7H16.4z M6.9,12c0-2.8,2.3-5.1,5.1-5.1c2.8,0,5.1,2.3,5.1,5.1c0,2.8-2.3,5.1-5.1,5.1C9.2,17.1,6.9,14.8,6.9,12z
		 M8.6,12c0,1.9,1.5,3.4,3.4,3.4s3.4-1.5,3.4-3.4c0-1.9-1.5-3.4-3.4-3.4S8.6,10.1,8.6,12z"/>
</mask>
<g class="st2">
</g>
</svg>
