<?xml version="1.0" encoding="utf-8"?>
<!-- Generator: Adobe Illustrator 24.2.0, SVG Export Plug-In . SVG Version: 6.00 Build 0)  -->
<svg version="1.1" id="Layer_1" xmlns="http://www.w3.org/2000/svg" xmlns:xlink="http://www.w3.org/1999/xlink" x="0px" y="0px"
	 viewBox="0 0 24 24" style="enable-background:new 0 0 24 24;" xml:space="preserve">
<path d="M19.2,3H4.8C3.8,3,3,3.8,3,4.8v14.4c0,1,0.8,1.8,1.8,1.8h14.4c1,0,1.8-0.8,1.8-1.8V4.8C21,3.8,20.2,3,19.2,3z M8.4,18.3H5.7
	v-8.1h2.7V18.3z M7.1,8.7c-0.9,0-1.6-0.7-1.6-1.6s0.7-1.6,1.6-1.6s1.6,0.7,1.6,1.6S7.9,8.7,7.1,8.7z M18.3,18.3h-2.7v-4.8
	c0-0.7-0.6-1.3-1.4-1.3s-1.4,0.6-1.4,1.3v4.8h-2.7v-8.1h2.7v1.1c0.5-0.7,1.4-1.3,2.2-1.3c1.7,0,3.1,1.4,3.1,3.1V18.3z"/>
</svg>
